<!-- Generated by IcoMoon.io -->
<svg version="1.1" xmlns="http://www.w3.org/2000/svg" width="1024" height="1024" viewBox="0 0 1024 1024">
<g id="icomoon-ignore">
</g>
<path fill="#000" d="M870.124 524.332c9.75-7.25 19.624-14.376 28.458-23.208 26.416-26.458 46.542-58.666 59.584-95.708 4.166-11.584 1.208-24.584-7.544-33.25-8.708-8.75-21.624-11.708-33.246-7.584-70.792 25-147.376 8-199.792-44.5-52.5-52.502-69.584-129.042-44.5-199.792 4.084-11.626 1.166-24.542-7.584-33.292-8.666-8.666-21.624-11.668-33.25-7.582-37.084 13.164-69.25 33.246-95.668 59.664-67.082 67-87.958 162-64.958 247.584-86.5 11.042-164.25 57-216.042 127.586-10.458-1.5-20.958-2.25-31.584-2.25-123.5 0-224 100.5-224 224.002 0 123.498 100.5 223.998 224 223.998 27.376 0 54.168-5 79.418-14.668 57.914 50.5 131.582 78.668 208.582 78.668 77.084 0 150.666-28.168 208.582-78.668 25.25 9.668 52.042 14.668 79.418 14.668 123.5 0 224-100.5 224-223.998 0.002-98.878-64.832-182.044-153.874-211.67zM581.832 184.332c5.084-5.166 10.542-9.958 16.292-14.458-4.5 71.958 21.458 142.75 74.208 195.458 52.752 52.75 123.542 78.666 195.502 74.208-27.584 35.168-65.584 57.042-106.252 66.376-54.75-69.5-135.208-113.25-223.916-120.374-24.542-67.918-10.166-146.876 44.166-201.21zM800 896c-34.25 0-65.832-11-91.876-29.334-46.958 56.584-116.876 93.334-196.124 93.334-79.25 0-149.168-36.75-196.124-93.334-26 18.334-57.624 29.334-91.876 29.334-88.376 0-160-71.624-160-159.998 0-88.376 71.624-160 160-160 21.624 0 42.124 4.376 60.876 12.124 40.376-78.71 119.5-133.792 212.624-139.086 4.876-0.29 9.624-1.042 14.5-1.042 25.832 0 50.624 4.042 74 11.166 31.582 9.668 60.376 25.416 85.376 45.708 23.876 19.376 43.876 43.124 59.624 69.792 2.666 4.5 5.668 8.75 8.082 13.458 18.792-7.75 39.336-12.124 60.918-12.124 88.376 0 160 71.624 160 160s-71.624 160.002-160 160.002z"></path>
</svg>
