<!-- Generated by IcoMoon.io -->
<svg version="1.1" xmlns="http://www.w3.org/2000/svg" width="1024" height="1024" viewBox="0 0 1024 1024">
<g id="icomoon-ignore">
</g>
<path fill="#000" d="M800 128c-10.624 0-21.124 0.75-31.584 2.25-59.748-81.416-154.040-130.25-256.416-130.25s-196.624 48.834-256.416 130.25c-10.46-1.5-20.96-2.25-31.584-2.25-123.5 0-224 100.5-224 224s100.5 224 224 224c27.376 0 54.168-5 79.418-14.666 57.914 50.5 131.582 78.666 208.582 78.666 77.084 0 150.666-28.166 208.582-78.666 25.25 9.666 52.042 14.666 79.418 14.666 123.5 0 224-100.5 224-224s-100.5-224-224-224zM800 512c-19.418 0-38.418-3.5-56.5-10.416l-36-13.834-29 25.334c-46.5 40.582-105.624 62.916-166.5 62.916s-120-22.334-166.5-62.916l-29-25.334-36 13.834c-18 6.916-37.082 10.416-56.5 10.416-88.25 0-160-71.792-160-160s71.75-160 160-160c7.584 0 15 0.542 22.5 1.584l37.916 5.5 22.708-30.916c48.626-66.21 123.294-104.168 204.876-104.168 81.624 0 156.25 37.916 204.834 104.126l22.75 30.958 37.998-5.5c7.418-1.042 14.834-1.584 22.418-1.584 88.25 0 160 71.792 160 160s-71.75 160-160 160zM192 640c-35.376 0-64 28.624-64 64s28.624 64 64 64 64-28.624 64-64-28.624-64-64-64zM512 704c-35.376 0-64 28.624-64 64s28.624 64 64 64 64-28.624 64-64-28.624-64-64-64zM832 640c-35.376 0-64 28.624-64 64s28.624 64 64 64 64-28.624 64-64-28.624-64-64-64zM704 896c-35.376 0-64 28.624-64 64s28.624 64 64 64 64-28.624 64-64-28.624-64-64-64zM320 896c-35.376 0-64 28.624-64 64s28.624 64 64 64 64-28.624 64-64-28.624-64-64-64z"></path>
</svg>
