<!-- Generated by IcoMoon.io -->
<svg version="1.1" xmlns="http://www.w3.org/2000/svg" width="1024" height="1024" viewBox="0 0 1024 1024">
<g id="icomoon-ignore">
</g>
<path fill="#000" d="M862 384c-53 0-96 43-96 96 0 11.292 2.334 21.916 5.876 32h-613.876c-17.666 0-32 14.334-32 32s14.334 32 32 32h704c53 0 96-43 96-96s-43-96-96-96zM158 448h384c53 0 96-43 96-96s-43-96-96-96-96 43-96 96c0 11.292 2.334 21.916 5.876 32h-293.876c-17.666 0-32 14.334-32 32s14.334 32 32 32zM670 640c-1.876 0-3.668 0.416-5.582 0.582-1.25-0.082-2.292-0.582-3.542-0.582h-493.708c-22.75 0-41.168 14.334-41.168 32s18.418 32 41.168 32h412.708c-3.542 10.084-5.876 20.752-5.876 32 0 53 43 96 96 96s96-43 96-96-43-96-96-96z"></path>
</svg>
