<!-- Generated by IcoMoon.io -->
<svg version="1.1" xmlns="http://www.w3.org/2000/svg" width="1024" height="1024" viewBox="0 0 1024 1024">
<g id="icomoon-ignore">
</g>
<path fill="#000" d="M512 288c-123.5 0-224 100.5-224 224s100.5 224 224 224 224-100.5 224-224c0-123.5-100.5-224-224-224zM512 672c-88.376 0-160-71.624-160-160s71.624-160 160-160 160 71.624 160 160-71.624 160-160 160zM512 224c17.666 0 32-14.334 32-32v-64c0-17.666-14.334-32-32-32s-32 14.334-32 32v64c0 17.666 14.334 32 32 32zM512 800c-17.666 0-32 14.334-32 32v64c0 17.666 14.334 32 32 32s32-14.334 32-32v-64c0-17.666-14.334-32-32-32zM760.876 308.334l45.25-45.25c12.5-12.5 12.5-32.75 0-45.25s-32.75-12.5-45.25 0l-45.25 45.25c-12.5 12.5-12.5 32.75 0 45.25 12.498 12.5 32.75 12.5 45.25 0zM263.124 715.668l-45.25 45.25c-12.5 12.498-12.5 32.748 0 45.248s32.75 12.5 45.25 0l45.25-45.248c12.5-12.542 12.5-32.752 0-45.25-12.498-12.502-32.75-12.544-45.25 0zM224 512c0-17.666-14.334-32-32-32h-64c-17.666 0-32 14.334-32 32s14.334 32 32 32h64c17.666 0 32-14.334 32-32zM896 480h-64c-17.666 0-32 14.334-32 32s14.334 32 32 32h64c17.666 0 32-14.334 32-32s-14.334-32-32-32zM263.082 308.334c12.502 12.5 32.752 12.5 45.25 0 12.502-12.5 12.502-32.75 0-45.25l-45.25-45.25c-12.5-12.5-32.748-12.5-45.25 0-12.5 12.5-12.5 32.75 0 45.25l45.25 45.25zM760.918 715.624c-12.542-12.5-32.752-12.5-45.25 0-12.502 12.5-12.542 32.75 0 45.25l45.25 45.25c12.498 12.5 32.748 12.5 45.248 0s12.5-32.748 0-45.25l-45.248-45.25z"></path>
</svg>
