<!-- Generated by IcoMoon.io -->
<svg version="1.1" xmlns="http://www.w3.org/2000/svg" width="1024" height="1024" viewBox="0 0 1024 1024">
<g id="icomoon-ignore">
</g>
<path fill="#000" d="M416 128c17.666 0 32-14.334 32-32v-64c0-17.666-14.334-32-32-32s-32 14.334-32 32v64c0 17.666 14.334 32 32 32zM664.876 212.334l45.25-45.25c12.498-12.5 12.498-32.75 0-45.25-12.5-12.5-32.75-12.5-45.25 0l-45.25 45.25c-12.5 12.5-12.5 32.75 0 45.25 12.498 12.5 32.75 12.5 45.25 0zM32 448h64c17.666 0 32-14.334 32-32s-14.334-32-32-32h-64c-17.666 0-32 14.334-32 32s14.334 32 32 32zM704 416c0 17.666 14.334 32 32 32h64c17.666 0 32-14.334 32-32s-14.334-32-32-32h-64c-17.666 0-32 14.334-32 32zM167.082 212.334c12.502 12.5 32.752 12.5 45.25 0 12.502-12.5 12.502-32.75 0-45.25l-45.25-45.25c-12.5-12.5-32.748-12.5-45.25 0-12.5 12.5-12.5 32.75 0 45.25l45.25 45.25zM800 512c-10.624 0-21.124 0.75-31.584 2.25-33.542-45.75-78.248-80.666-128.916-103-2.582-121.25-101.624-219.25-223.5-219.25-123.5 0-224 100.5-224 224 0 34.876 8.668 67.5 23 96.876-119.25 4.874-215 102.748-215 223.124 0 123.5 100.5 224 224 224 27.376 0 54.168-5 79.418-14.666 57.914 50.5 131.582 78.666 208.582 78.666 77.084 0 150.666-28.166 208.582-78.666 25.25 9.666 52.042 14.666 79.418 14.666 123.5 0 224-100.5 224-224s-100.5-224-224-224zM416 256c79.624 0 145.124 58.334 157.416 134.5-20.042-4-40.498-6.5-61.416-6.5-91.876 0-177 39.624-236.75 106.5-11.874-22.334-19.25-47.416-19.25-74.5 0-88.376 71.624-160 160-160zM800 896c-34.25 0-65.832-11-91.876-29.334-46.956 56.584-116.876 93.334-196.124 93.334-79.25 0-149.168-36.75-196.124-93.334-26 18.334-57.626 29.334-91.876 29.334-88.376 0-160-71.624-160-160s71.624-160 160-160c15.5 0 30.124 2.916 44.25 7.082 5.624 1.584 11.334 2.834 16.624 5.042 8.75-17.124 19.75-32.792 31.958-47.5 46.752-56.248 116.292-92.624 195.168-92.624 20.25 0 39.668 2.916 58.5 7.418 21.124 4.998 41.084 12.582 59.668 22.582 46.582 24.75 84.832 63.084 108.914 110.126 18.794-7.75 39.336-12.126 60.918-12.126 88.376 0 160 71.624 160 160s-71.624 160-160 160z"></path>
</svg>
