<!-- Generated by IcoMoon.io -->
<svg version="1.1" xmlns="http://www.w3.org/2000/svg" width="1024" height="1024" viewBox="0 0 1024 1024">
<g id="icomoon-ignore">
</g>
<path fill="#000" d="M800 320c-10.624 0-21.124 0.75-31.584 2.25-59.748-81.416-154.040-130.25-256.416-130.25s-196.624 48.834-256.416 130.25c-10.46-1.5-20.96-2.25-31.584-2.25-123.5 0-224 100.5-224 224s100.5 224 224 224c27.376 0 54.168-5 79.418-14.666 57.914 50.5 131.582 78.666 208.582 78.666 77.084 0 150.666-28.166 208.582-78.666 25.25 9.666 52.042 14.666 79.418 14.666 123.5 0 224-100.5 224-224s-100.5-224-224-224zM800 704c-34.25 0-65.832-11-91.876-29.334-46.956 56.582-116.876 93.334-196.124 93.334-79.25 0-149.168-36.752-196.124-93.334-26 18.334-57.626 29.334-91.876 29.334-88.376 0-160-71.624-160-160s71.624-160 160-160c21.624 0 42.124 4.416 60.876 12.166 42.458-82.832 127.706-140.166 227.124-140.166s184.668 57.334 227.082 140.166c18.794-7.75 39.336-12.166 60.918-12.166 88.376 0 160 71.624 160 160s-71.624 160-160 160z"></path>
</svg>
